<?xml version="1.0" standalone="no"?>
<!DOCTYPE svg PUBLIC "-//W3C//DTD SVG 20010904//EN"
 "http://www.w3.org/TR/2001/REC-SVG-20010904/DTD/svg10.dtd">
<svg version="1.0" xmlns="http://www.w3.org/2000/svg"
 width="80.000000pt" height="80.000000pt" viewBox="0 0 80.000000 80.000000"
 preserveAspectRatio="xMidYMid meet">

<g transform="translate(0.000000,80.000000) scale(0.100000,-0.100000)"
fill="#000000" stroke="none">
<path d="M235 618 c-3 -7 -25 -94 -49 -193 l-44 -180 -16 37 c-9 21 -16 39
-16 42 0 2 -9 25 -20 51 l-20 46 -30 -18 c-35 -20 -39 -34 -9 -30 17 2 27 -13
59 -93 20 -52 42 -96 47 -97 5 -2 29 76 53 174 23 98 47 192 52 210 l9 33 229
0 c198 0 230 2 230 15 0 13 -33 15 -235 15 -180 0 -237 -3 -240 -12z"/>
<path d="M420 525 c-1 -29 -1 -29 -15 -11 -15 19 -15 19 -15 -3 0 -13 -4 -20
-11 -15 -7 4 -10 0 -7 -11 2 -14 14 -18 55 -19 36 -1 54 3 58 12 7 20 6 24 -5
17 -5 -3 -10 2 -10 11 0 14 -3 15 -12 6 -9 -9 -15 -6 -24 16 l-12 27 -2 -30z"/>
<path d="M320 465 c-7 -8 -21 -15 -31 -15 -26 0 -48 -37 -55 -94 -6 -44 -5
-50 22 -72 19 -15 24 -23 14 -24 -10 0 -20 -16 -27 -40 l-10 -40 92 0 92 0
-10 40 c-8 29 -16 40 -31 40 -19 0 -19 0 0 21 18 20 18 21 -14 45 -43 34 -40
44 9 33 28 -7 45 -6 54 1 10 8 15 8 20 0 4 -6 14 -9 23 -6 10 2 31 7 47 10
l30 6 -37 -33 c-35 -32 -36 -35 -22 -55 14 -20 14 -22 -5 -22 -14 0 -21 -6
-21 -20 0 -30 -1 -34 -12 -47 -8 -10 10 -13 87 -13 89 0 96 2 90 18 -4 9 -8
26 -10 36 -1 11 -10 23 -20 26 -18 6 -17 8 8 25 22 14 27 25 27 59 0 50 -18
87 -49 102 -12 6 -28 17 -34 23 -15 15 -27 14 -27 -2 0 -8 -20 -28 -45 -46
l-45 -32 -35 27 c-20 15 -42 36 -49 46 -12 16 -15 17 -26 3z"/>
</g>
</svg>
